<svg width="196" height="52" viewBox="0 0 196 52" fill="none" xmlns="http://www.w3.org/2000/svg">
<path d="M186.135 16.1862C183.831 14.2591 180.69 13.1971 177.288 13.1971C175.143 13.1971 173.023 13.6235 171.12 14.4354V4.63184H164.441V22.0863C164.441 27.9455 162.285 30.8115 157.845 30.8484C153.413 30.8115 151.252 27.9455 151.252 22.0863V4.63184H144.574V23.2754C144.574 32.7591 148.977 37.5727 157.661 37.5727C157.718 37.5727 158.294 37.5686 158.294 37.5686C160.671 37.5399 162.746 37.1381 164.47 36.3755V47.4173H171.12V36.4001C173.019 37.2078 175.135 37.6342 177.276 37.6342C180.678 37.6342 183.823 36.5682 186.127 34.637C188.754 32.4352 190.142 29.2412 190.142 25.4034C190.142 21.5656 188.754 18.3839 186.131 16.1862H186.135ZM176.606 19.4253C179.632 19.4253 182.091 22.1109 182.091 25.4116C182.091 28.7122 179.632 31.3979 176.606 31.3979C173.579 31.3979 171.12 28.7122 171.12 25.4116C171.12 22.1109 173.583 19.4253 176.606 19.4253Z" fill="#2E3092"/>
<path d="M47.9995 17.9404H37.7551V23.857H47.9995V17.9404Z" fill="#2E3092"/>
<path d="M93.3518 14.3164H86.3751V37.0191H93.3518V14.3164Z" fill="#2E3092"/>
<path d="M89.8634 4C87.7149 4 85.9707 5.75488 85.9707 7.90748C85.9707 10.0601 87.7189 11.815 89.8634 11.815C92.0079 11.815 93.7561 10.0642 93.7561 7.90748C93.7561 5.75078 92.0119 4 89.8634 4Z" fill="#2E3092"/>
<path d="M138.116 16.2755C136.269 14.2459 133.639 13.2168 130.298 13.2168C126.956 13.2168 124.318 14.3607 122.108 16.6159C119.898 18.871 118.779 21.9584 118.779 25.7921C118.779 29.6257 119.82 32.4303 121.871 34.5132C123.921 36.6002 126.83 37.658 130.518 37.658C131.057 37.658 131.584 37.6416 132.091 37.6129H132.123C135.269 37.4325 138.206 35.9113 140.178 33.443L140.428 33.1314L140.101 32.9059L136.159 30.1711L135.914 30.003L135.698 30.208C134.497 31.3314 132.814 31.9752 131.078 31.9752C128.451 31.9752 126.638 30.3474 126.368 27.7971H140.885V24.4923C140.885 21.0605 139.954 18.2928 138.12 16.2755H138.116ZM127.667 19.9247C128.406 19.076 129.252 18.6618 130.253 18.6618C132.524 18.6618 133.631 20.7283 133.749 22.7743H126.348C126.552 21.6509 126.997 20.6955 127.667 19.9247Z" fill="#2E3092"/>
<path d="M114.972 27.1943C114.608 26.4645 114.122 25.8167 113.518 25.2713C112.913 24.7301 112.207 24.2627 111.414 23.8691C110.63 23.4796 109.748 23.1187 108.8 22.7907C108.314 22.6267 107.812 22.4627 107.211 22.27C106.7 22.106 106.227 21.9215 105.806 21.7124C105.406 21.5197 105.075 21.2901 104.822 21.0277C104.593 20.7939 104.47 20.5233 104.442 20.1953C104.421 19.9657 104.466 19.773 104.576 19.6008C104.695 19.4122 104.871 19.2564 105.107 19.1334C105.369 18.994 105.671 18.8874 106.039 18.8136C106.406 18.7397 106.807 18.7028 107.223 18.7028C108.151 18.7028 109.115 18.83 110.095 19.076C110.491 19.1744 110.895 19.3056 111.333 19.4696L111.52 19.5393L111.684 19.4204L115.417 16.6692L115.777 16.4026L115.45 16.0992C115.09 15.763 114.772 15.5047 114.445 15.2833C113.436 14.5904 112.288 14.0737 111.026 13.7498C110.671 13.6555 110.283 13.5776 109.813 13.4956C109.748 13.4792 109.682 13.4628 109.617 13.4546C109.535 13.4423 109.449 13.43 109.368 13.4218L109.249 13.4054H109.204C109.147 13.3931 109.094 13.3849 109.037 13.3767C108.175 13.2701 107.334 13.2168 106.537 13.2168C105.25 13.2168 104.009 13.3603 102.836 13.6391C101.648 13.922 100.594 14.3689 99.7075 14.9758C98.8048 15.5867 98.094 16.3862 97.5998 17.3498C97.1015 18.3215 96.9054 19.486 97.0198 20.8185C97.1015 21.7821 97.3016 22.6308 97.6121 23.3402C97.9225 24.0536 98.3514 24.6932 98.8865 25.2385C99.3971 25.7716 100.038 26.2513 100.786 26.6613C101.505 27.0549 102.338 27.4321 103.269 27.7766C103.837 27.998 104.446 28.203 105.063 28.3793C105.663 28.5556 106.206 28.7442 106.717 28.9615C107.199 29.1706 107.603 29.4084 107.914 29.6749C108.183 29.9046 108.33 30.1834 108.359 30.5278C108.404 31.0649 108.175 31.438 107.636 31.7086C107.023 32.0203 106.12 32.1761 104.956 32.1761C103.984 32.1761 102.93 32.0121 101.827 31.684C101.603 31.6184 101.366 31.5118 101.109 31.356L100.9 31.233L100.704 31.3765L96.7461 34.2959L96.3826 34.5624L96.7134 34.8658C97.0565 35.1815 97.3629 35.4275 97.6692 35.6366C98.6782 36.3296 99.826 36.8462 101.088 37.1701C102.228 37.4653 103.911 37.658 105.381 37.658C105.406 37.658 105.43 37.658 105.455 37.6539C105.467 37.6539 105.479 37.6539 105.487 37.6539C105.524 37.6539 105.561 37.6539 105.598 37.6539C106.962 37.6539 108.277 37.5145 109.511 37.2357C110.769 36.9528 111.88 36.4977 112.811 35.8826C113.759 35.2553 114.502 34.4312 115.025 33.4266C115.548 32.4221 115.756 31.1961 115.638 29.7898C115.552 28.7934 115.327 27.916 114.968 27.1861L114.972 27.1943Z" fill="#2E3092"/>
<path d="M73.3286 24.0952C76.4534 24.0952 80.8036 20.8192 80.8036 14.5377C80.8036 8.25621 76.7597 4.63574 69.4114 4.63574H54.1837V37.0231H61.1604V24.4642H64.2279L74.7215 37.0231H84.1285L73.3286 24.0952ZM69.5176 17.945H61.1604V11.155H69.5176C72.5607 11.155 74.0353 12.2457 74.0353 14.4926C74.0353 17.3463 71.5763 17.945 69.5176 17.945Z" fill="#2E3092"/>
<path d="M6.31128 4.63574V11.3149H19.4313L24.1287 9.30175L18.9411 19.7162V37.019H25.9218V11.3149H38.5598V4.63574H6.31128Z" fill="#2E3092"/>
<path d="M21.6043 11.668L14.1294 26.6091V18.7367H6.31128L21.6043 11.668Z" fill="#A8CF37"/>
</svg>
